{
  "accessors": [
    {
      "bufferView": 2,
      "componentType": 5126,
      "count": 180,
      "max": [
        3.6968460083007813,
        3.6968467235565186,
        2.5187020301818848
      ],
      "min": [
        -3.6968460083007813,
        -3.6968467235565186,
        2.5186996459960938
      ],
      "type": "VEC3"
    },
    {
      "bufferView": 2,
      "byteOffset": 2160,
      "componentType": 5126,
      "count": 180,
      "type": "VEC3"
    },
    {
      "bufferView": 1,
      "componentType": 5126,
      "count": 180,
      "type": "VEC2"
    },
    {
      "bufferView": 0,
      "componentType": 5125,
      "count": 840,
      "type": "SCALAR"
    },
    {
      "bufferView": 2,
      "byteOffset": 4320,
      "componentType": 5126,
      "count": 2297,
      "max": [
        3.0867412090301514,
        1.4871472120285034,
        2.677521228790283
      ],
      "min": [
        -2.05046010017395,
        -0.4263336658477783,
        2.5186996459960938
      ],
      "type": "VEC3"
    },
    {
      "bufferView": 2,
      "byteOffset": 31884,
      "componentType": 5126,
      "count": 2297,
      "type": "VEC3"
    },
    {
      "bufferView": 1,
      "byteOffset": 1440,
      "componentType": 5126,
      "count": 2297,
      "type": "VEC2"
    },
    {
      "bufferView": 0,
      "byteOffset": 3360,
      "componentType": 5125,
      "count": 13656,
      "type": "SCALAR"
    },
    {
      "bufferView": 2,
      "byteOffset": 59448,
      "componentType": 5126,
      "count": 766,
      "max": [
        3.6968462467193604,
        3.6968467235565186,
        4.485658168792725
      ],
      "min": [
        -3.6968462467193604,
        -3.6968467235565186,
        3.6631321907043457
      ],
      "type": "VEC3"
    },
    {
      "bufferView": 2,
      "byteOffset": 68640,
      "componentType": 5126,
      "count": 766,
      "type": "VEC3"
    },
    {
      "bufferView": 1,
      "byteOffset": 19816,
      "componentType": 5126,
      "count": 766,
      "type": "VEC2"
    },
    {
      "bufferView": 0,
      "byteOffset": 57984,
      "componentType": 5125,
      "count": 3840,
      "type": "SCALAR"
    },
    {
      "bufferView": 2,
      "byteOffset": 77832,
      "componentType": 5126,
      "count": 725,
      "max": [
        3.9004318714141846,
        3.9004321098327637,
        2.2722342014312744
      ],
      "min": [
        -3.9004318714141846,
        -3.9004321098327637,
        1.897039771080017
      ],
      "type": "VEC3"
    },
    {
      "bufferView": 2,
      "byteOffset": 86532,
      "componentType": 5126,
      "count": 725,
      "type": "VEC3"
    },
    {
      "bufferView": 1,
      "byteOffset": 25944,
      "componentType": 5126,
      "count": 725,
      "type": "VEC2"
    },
    {
      "bufferView": 0,
      "byteOffset": 73344,
      "componentType": 5125,
      "count": 4224,
      "type": "SCALAR"
    },
    {
      "bufferView": 2,
      "byteOffset": 95232,
      "componentType": 5126,
      "count": 65532,
      "max": [
        2.7471890449523926,
        3.1753859519958496,
        8.561235427856445
      ],
      "min": [
        -2.7471890449523926,
        -9.030624389648438,
        -4.761052131652832
      ],
      "type": "VEC3"
    },
    {
      "bufferView": 2,
      "byteOffset": 881616,
      "componentType": 5126,
      "count": 65532,
      "type": "VEC3"
    },
    {
      "bufferView": 1,
      "byteOffset": 31744,
      "componentType": 5126,
      "count": 65532,
      "type": "VEC2"
    },
    {
      "bufferView": 0,
      "byteOffset": 90240,
      "componentType": 5125,
      "count": 242253,
      "type": "SCALAR"
    },
    {
      "bufferView": 2,
      "byteOffset": 1668000,
      "componentType": 5126,
      "count": 1254,
      "max": [
        2.567211627960205,
        3.167006015777588,
        8.542840003967285
      ],
      "min": [
        -2.5667810440063477,
        -6.977434158325195,
        1.534139633178711
      ],
      "type": "VEC3"
    },
    {
      "bufferView": 2,
      "byteOffset": 1683048,
      "componentType": 5126,
      "count": 1254,
      "type": "VEC3"
    },
    {
      "bufferView": 1,
      "byteOffset": 556000,
      "componentType": 5126,
      "count": 1254,
      "type": "VEC2"
    },
    {
      "bufferView": 0,
      "byteOffset": 1059252,
      "componentType": 5125,
      "count": 4197,
      "type": "SCALAR"
    },
    {
      "bufferView": 2,
      "byteOffset": 1698096,
      "componentType": 5126,
      "count": 1745,
      "max": [
        4.59080696105957,
        0.34593069553375244,
        3.3459935188293457
      ],
      "min": [
        4.065737247467041,
        -0.3459307849407196,
        2.6541314125061035
      ],
      "type": "VEC3"
    },
    {
      "bufferView": 2,
      "byteOffset": 1719036,
      "componentType": 5126,
      "count": 1745,
      "type": "VEC3"
    },
    {
      "bufferView": 1,
      "byteOffset": 566032,
      "componentType": 5126,
      "count": 1745,
      "type": "VEC2"
    },
    {
      "bufferView": 0,
      "byteOffset": 1076040,
      "componentType": 5125,
      "count": 9504,
      "type": "SCALAR"
    },
    {
      "bufferView": 2,
      "byteOffset": 1739976,
      "componentType": 5126,
      "count": 5824,
      "max": [
        4.203055381774902,
        5.029415130615234,
        3.88224458694458
      ],
      "min": [
        -4.190728664398193,
        -5.029415130615234,
        1.9434728622436523
      ],
      "type": "VEC3"
    },
    {
      "bufferView": 2,
      "byteOffset": 1809864,
      "componentType": 5126,
      "count": 5824,
      "type": "VEC3"
    },
    {
      "bufferView": 1,
      "byteOffset": 579992,
      "componentType": 5126,
      "count": 5824,
      "type": "VEC2"
    },
    {
      "bufferView": 0,
      "byteOffset": 1114056,
      "componentType": 5125,
      "count": 27552,
      "type": "SCALAR"
    },
    {
      "bufferView": 2,
      "byteOffset": 1879752,
      "componentType": 5126,
      "count": 65532,
      "max": [
        2.764340400695801,
        3.285372734069824,
        -2.532578706741333
      ],
      "min": [
        -2.76434063911438,
        -5.362989902496338,
        -11.789995193481445
      ],
      "type": "VEC3"
    },
    {
      "bufferView": 2,
      "byteOffset": 2666136,
      "componentType": 5126,
      "count": 65532,
      "type": "VEC3"
    },
    {
      "bufferView": 1,
      "byteOffset": 626584,
      "componentType": 5126,
      "count": 65532,
      "type": "VEC2"
    },
    {
      "bufferView": 0,
      "byteOffset": 1224264,
      "componentType": 5125,
      "count": 243321,
      "type": "SCALAR"
    },
    {
      "bufferView": 2,
      "byteOffset": 3452520,
      "componentType": 5126,
      "count": 11072,
      "max": [
        2.5667810440063477,
        3.2846012115478516,
        -2.8933427333831787
      ],
      "min": [
        -2.5667810440063477,
        -5.092785358428955,
        -11.71599006652832
      ],
      "type": "VEC3"
    },
    {
      "bufferView": 2,
      "byteOffset": 3585384,
      "componentType": 5126,
      "count": 11072,
      "type": "VEC3"
    },
    {
      "bufferView": 1,
      "byteOffset": 1150840,
      "componentType": 5126,
      "count": 11072,
      "type": "VEC2"
    },
    {
      "bufferView": 0,
      "byteOffset": 2197548,
      "componentType": 5125,
      "count": 42135,
      "type": "SCALAR"
    }
  ],
  "asset": {
    "generator": "fab-model-conversion",
    "version": "2.0"
  },
  "bufferViews": [
    {
      "buffer": 0,
      "byteLength": 2366088,
      "target": 34963
    },
    {
      "buffer": 0,
      "byteLength": 1239416,
      "byteOffset": 2366088,
      "byteStride": 8,
      "target": 34962
    },
    {
      "buffer": 0,
      "byteLength": 3718248,
      "byteOffset": 3605504,
      "byteStride": 12,
      "target": 34962
    }
  ],
  "buffers": [
    {
      "byteLength": 7323752,
      "uri": "scene.bin"
    }
  ],
  "extensionsUsed": [
    "KHR_materials_specular",
    "KHR_materials_transmission"
  ],
  "images": [
    {
      "uri": "textures/Face_baseColor.png"
    },
    {
      "uri": "textures/Glass_metallicRoughness.jpeg"
    },
    {
      "uri": "textures/Gold_metallicRoughness.jpeg"
    }
  ],
  "materials": [
    {
      "doubleSided": true,
      "extensions": {
        "KHR_materials_specular": {
          "specularColorFactor": [
            1.0,
            1.0,
            1.0
          ],
          "specularFactor": 0.31549283657070615
        }
      },
      "name": "Face",
      "pbrMetallicRoughness": {
        "baseColorTexture": {
          "index": 0
        },
        "metallicFactor": 0.2790547782333747,
        "roughnessFactor": 0.005769340703389271
      }
    },
    {
      "doubleSided": true,
      "name": "Pins",
      "pbrMetallicRoughness": {
        "baseColorFactor": [
          0.11473555333062971,
          0.11473555333062971,
          0.11473555333062971,
          1.0
        ],
        "roughnessFactor": 0.011842350426277836
      }
    },
    {
      "alphaMode": "BLEND",
      "doubleSided": true,
      "extensions": {
        "KHR_materials_transmission": {
          "transmissionFactor": 1.0
        }
      },
      "name": "Glass",
      "pbrMetallicRoughness": {
        "baseColorFactor": [
          1.0,
          1.0,
          1.0,
          0.25
        ],
        "metallicFactor": 0.0543534184864978,
        "metallicRoughnessTexture": {
          "index": 1
        },
        "roughnessFactor": 0.4794640990886974
      }
    },
    {
      "doubleSided": true,
      "name": "Gold",
      "pbrMetallicRoughness": {
        "baseColorFactor": [
          0.698725436640326,
          0.4353102545695462,
          0.0,
          1.0
        ],
        "metallicRoughnessTexture": {
          "index": 2
        },
        "roughnessFactor": 0.6616543907753544
      }
    },
    {
      "doubleSided": true,
      "name": "lambert1",
      "pbrMetallicRoughness": {
        "baseColorFactor": [
          0.3380279402338887,
          0.20126340605331303,
          0.0,
          1.0
        ],
        "roughnessFactor": 0.22439769072737764
      }
    }
  ],
  "meshes": [
    {
      "name": "polySurface321_Face_0",
      "primitives": [
        {
          "attributes": {
            "NORMAL": 1,
            "POSITION": 0,
            "TEXCOORD_0": 2
          },
          "indices": 3,
          "material": 0,
          "mode": 4
        }
      ]
    },
    {
      "name": "polySurface320_Pins_0",
      "primitives": [
        {
          "attributes": {
            "NORMAL": 5,
            "POSITION": 4,
            "TEXCOORD_0": 6
          },
          "indices": 7,
          "material": 1,
          "mode": 4
        }
      ]
    },
    {
      "name": "polySurface314_Glass_0",
      "primitives": [
        {
          "attributes": {
            "NORMAL": 9,
            "POSITION": 8,
            "TEXCOORD_0": 10
          },
          "indices": 11,
          "material": 2,
          "mode": 4
        }
      ]
    },
    {
      "name": "polySurface322_Gold_0",
      "primitives": [
        {
          "attributes": {
            "NORMAL": 13,
            "POSITION": 12,
            "TEXCOORD_0": 14
          },
          "indices": 15,
          "material": 3,
          "mode": 4
        }
      ]
    },
    {
      "name": "polySurface281_Gold_0",
      "primitives": [
        {
          "attributes": {
            "NORMAL": 17,
            "POSITION": 16,
            "TEXCOORD_0": 18
          },
          "indices": 19,
          "material": 3,
          "mode": 4
        }
      ]
    },
    {
      "name": "polySurface281_Gold_0",
      "primitives": [
        {
          "attributes": {
            "NORMAL": 21,
            "POSITION": 20,
            "TEXCOORD_0": 22
          },
          "indices": 23,
          "material": 3,
          "mode": 4
        }
      ]
    },
    {
      "name": "polySurface316_lambert1_0",
      "primitives": [
        {
          "attributes": {
            "NORMAL": 25,
            "POSITION": 24,
            "TEXCOORD_0": 26
          },
          "indices": 27,
          "material": 4,
          "mode": 4
        }
      ]
    },
    {
      "name": "polySurface323_Gold_0",
      "primitives": [
        {
          "attributes": {
            "NORMAL": 29,
            "POSITION": 28,
            "TEXCOORD_0": 30
          },
          "indices": 31,
          "material": 3,
          "mode": 4
        }
      ]
    },
    {
      "name": "pPlane2_Gold_0",
      "primitives": [
        {
          "attributes": {
            "NORMAL": 33,
            "POSITION": 32,
            "TEXCOORD_0": 34
          },
          "indices": 35,
          "material": 3,
          "mode": 4
        }
      ]
    },
    {
      "name": "pPlane2_Gold_0",
      "primitives": [
        {
          "attributes": {
            "NORMAL": 37,
            "POSITION": 36,
            "TEXCOORD_0": 38
          },
          "indices": 39,
          "material": 3,
          "mode": 4
        }
      ]
    }
  ],
  "nodes": [
    {
      "children": [
        1
      ],
      "matrix": [
        1.0,
        0.0,
        0.0,
        0.0,
        0.0,
        2.220446049250313e-16,
        -1.0,
        0.0,
        0.0,
        1.0,
        2.220446049250313e-16,
        0.0,
        0.0,
        0.0,
        0.0,
        1.0
      ],
      "name": "Sketchfab_model"
    },
    {
      "children": [
        2
      ],
      "matrix": [
        0.009999999776482582,
        0.0,
        0.0,
        0.0,
        0.0,
        0.0,
        0.009999999776482582,
        0.0,
        0.0,
        -0.009999999776482582,
        0.0,
        0.0,
        0.0,
        0.0,
        0.0,
        1.0
      ],
      "name": "4e488fda15bb4037aca3998b10c33873.fbx"
    },
    {
      "children": [
        3
      ],
      "name": "RootNode"
    },
    {
      "children": [
        4,
        6,
        8,
        10,
        12,
        15,
        17,
        19
      ],
      "matrix": [
        0.17664742043911652,
        -0.9842741939379523,
        0.0,
        0.0,
        0.9842741939379523,
        0.17664742043911652,
        0.0,
        0.0,
        0.0,
        0.0,
        1.0,
        0.0,
        -2.965512752532959,
        4.025650978088379,
        0.0,
        1.0
      ],
      "name": "Watch"
    },
    {
      "children": [
        5
      ],
      "matrix": [
        1.0,
        0.0,
        0.0,
        0.0,
        -0.0,
        -0.0010703257403037458,
        -0.9999994272012408,
        0.0,
        0.0,
        0.9999994272012408,
        -0.0010703257403037458,
        0.0,
        -8.881784197001252e-16,
        0.4405788481235504,
        -0.0004715631657745689,
        1.0
      ],
      "name": "polySurface321"
    },
    {
      "mesh": 0,
      "name": "polySurface321_Face_0"
    },
    {
      "children": [
        7
      ],
      "matrix": [
        1.0,
        0.0,
        0.0,
        0.0,
        -0.0,
        -0.0010703257403037458,
        -0.9999994272012408,
        0.0,
        0.0,
        0.9999994272012408,
        -0.0010703257403037458,
        0.0,
        -8.881784197001252e-16,
        0.4405788481235504,
        -0.0004715631657745689,
        1.0
      ],
      "name": "polySurface320"
    },
    {
      "mesh": 1,
      "name": "polySurface320_Pins_0"
    },
    {
      "children": [
        9
      ],
      "matrix": [
        1.0,
        0.0,
        0.0,
        0.0,
        0.0,
        -0.0010703257403037458,
        -0.9999994272012408,
        0.0,
        0.0,
        0.8625032133678516,
        -0.0009231599191471617,
        0.0,
        0.0,
        0.5313013195991516,
        -0.0005686657968908548,
        1.0
      ],
      "name": "polySurface314"
    },
    {
      "mesh": 2,
      "name": "polySurface314_Glass_0"
    },
    {
      "children": [
        11
      ],
      "matrix": [
        1.0,
        0.0,
        0.0,
        0.0,
        0.0,
        -0.0010703257403037458,
        -0.9999994272012408,
        0.0,
        0.0,
        0.9999994272012408,
        -0.0010703257403037458,
        0.0,
        0.0,
        0.0,
        8.881784197001252e-16,
        1.0
      ],
      "name": "polySurface322"
    },
    {
      "mesh": 3,
      "name": "polySurface322_Gold_0"
    },
    {
      "children": [
        13,
        14
      ],
      "name": "polySurface281"
    },
    {
      "mesh": 4,
      "name": "polySurface281_Gold_0"
    },
    {
      "mesh": 5,
      "name": "polySurface281_Gold_0"
    },
    {
      "children": [
        16
      ],
      "matrix": [
        0.9261045455932617,
        2.775557619738816e-17,
        2.853779961585915e-33,
        0.0,
        2.9707507641027e-20,
        -0.000991233533360772,
        -0.9261040151217271,
        0.0,
        -2.7755560299028553e-17,
        0.9261040151217271,
        -0.000991233533360772,
        0.0,
        0.267038494348526,
        0.22158238291740417,
        -0.00023716547002550215,
        1.0
      ],
      "name": "polySurface316"
    },
    {
      "mesh": 6,
      "name": "polySurface316_lambert1_0"
    },
    {
      "children": [
        18
      ],
      "matrix": [
        1.0,
        0.0,
        0.0,
        0.0,
        0.0,
        -0.0010703257403037458,
        -0.9999994272012408,
        0.0,
        0.0,
        0.9999994272012408,
        -0.0010703257403037458,
        0.0,
        0.0,
        0.0,
        -8.881784197001252e-16,
        1.0
      ],
      "name": "polySurface323"
    },
    {
      "mesh": 7,
      "name": "polySurface323_Gold_0"
    },
    {
      "children": [
        20,
        21
      ],
      "name": "pPlane2"
    },
    {
      "mesh": 8,
      "name": "pPlane2_Gold_0"
    },
    {
      "mesh": 9,
      "name": "pPlane2_Gold_0"
    }
  ],
  "samplers": [
    {
      "magFilter": 9729,
      "minFilter": 9987,
      "wrapS": 10497,
      "wrapT": 10497
    }
  ],
  "scene": 0,
  "scenes": [
    {
      "name": "Sketchfab_Scene",
      "nodes": [
        0
      ]
    }
  ],
  "textures": [
    {
      "sampler": 0,
      "source": 0
    },
    {
      "sampler": 0,
      "source": 1
    },
    {
      "sampler": 0,
      "source": 2
    }
  ]
}
